HIERARCHY
ROOT Hips
{
	OFFSET 0.00000 0.00000 0.00000
	CHANNELS 6 Xposition Yposition Zposition Zrotation Yrotation Xrotation 
	JOINT LHipJoint
	{
		OFFSET 0 0 0
		CHANNELS 3 Zrotation Yrotation Xrotation
		JOINT LeftUpLeg
		{
			OFFSET 1.62964 -1.40469 0.78906
			CHANNELS 3 Zrotation Yrotation Xrotation
			JOINT LeftLeg
			{
				OFFSET 2.29640 -6.30932 0.00000
				CHANNELS 3 Zrotation Yrotation Xrotation
				JOINT LeftFoot
				{
					OFFSET 2.29451 -6.30412 0.00000
					CHANNELS 3 Zrotation Yrotation Xrotation
					JOINT LeftToeBase
					{
						OFFSET 0.03611 -0.09921 1.56387
						CHANNELS 3 Zrotation Yrotation Xrotation
						End Site
						{
							OFFSET 0.00000 -0.00000 0.80291
						}
					}
				}
			}
		}
	}
	JOINT RHipJoint
	{
		OFFSET 0 0 0
		CHANNELS 3 Zrotation Yrotation Xrotation
		JOINT RightUpLeg
		{
			OFFSET -1.73712 -1.40469 0.78906
			CHANNELS 3 Zrotation Yrotation Xrotation
			JOINT RightLeg
			{
				OFFSET -2.28137 -6.26801 0.00000
				CHANNELS 3 Zrotation Yrotation Xrotation
				JOINT RightFoot
				{
					OFFSET -2.28681 -6.28298 0.00000
					CHANNELS 3 Zrotation Yrotation Xrotation
					JOINT RightToeBase
					{
						OFFSET -0.15927 -0.43759 1.61103
						CHANNELS 3 Zrotation Yrotation Xrotation
						End Site
						{
							OFFSET -0.00000 -0.00000 0.84630
						}
					}
				}
			}
		}
	}
	JOINT LowerBack
	{
		OFFSET 0 0 0
		CHANNELS 3 Zrotation Yrotation Xrotation
		JOINT Spine
		{
			OFFSET -0.04227 2.04338 -0.00225
			CHANNELS 3 Zrotation Yrotation Xrotation
			JOINT Spine1
			{
				OFFSET -0.02148 2.04482 -0.04273
				CHANNELS 3 Zrotation Yrotation Xrotation
				JOINT Neck
				{
					OFFSET 0 0 0
					CHANNELS 3 Zrotation Yrotation Xrotation
					JOINT Neck1
					{
						OFFSET 0.09180 1.44629 0.19359
						CHANNELS 3 Zrotation Yrotation Xrotation
						JOINT Head
						{
							OFFSET 0.00887 1.40645 0.14750
							CHANNELS 3 Zrotation Yrotation Xrotation
							End Site
							{
								OFFSET -0.00669 1.50671 0.03707
							}
						}
					}
				}
				JOINT LeftShoulder
				{
					OFFSET 0 0 0
					CHANNELS 3 Zrotation Yrotation Xrotation
					JOINT LeftArm
					{
						OFFSET 2.17674 1.86763 -0.06520
						CHANNELS 3 Zrotation Yrotation Xrotation
						JOINT LeftForeArm
						{
							OFFSET 4.65776 -0.00000 0.00000
							CHANNELS 3 Zrotation Yrotation Xrotation
							JOINT LeftHand
							{
								OFFSET 3.55539 -0.00000 0.00000
								CHANNELS 3 Zrotation Yrotation Xrotation
								JOINT LeftFingerBase
								{
									OFFSET 0 0 0
									CHANNELS 3 Zrotation Yrotation Xrotation
									JOINT LeftHandIndex1
									{
										OFFSET 0.70726 -0.00000 0.00000
										CHANNELS 3 Zrotation Yrotation Xrotation
										End Site
										{
											OFFSET 0.57022 -0.00000 0.00000
										}
									}
								}
								JOINT LThumb
								{
									OFFSET 0 0 0
									CHANNELS 3 Zrotation Yrotation Xrotation
									End Site
									{
										OFFSET 0.57892 -0.00000 0.57892
									}
								}
							}
						}
					}
				}
				JOINT RightShoulder
				{
					OFFSET 0 0 0
					CHANNELS 3 Zrotation Yrotation Xrotation
					JOINT RightArm
					{
						OFFSET -2.80694 1.55459 -0.32496
						CHANNELS 3 Zrotation Yrotation Xrotation
						JOINT RightForeArm
						{
							OFFSET -4.71925 -0.00000 -0.00000
							CHANNELS 3 Zrotation Yrotation Xrotation
							JOINT RightHand
							{
								OFFSET -3.56990 -0.00000 0.00000
								CHANNELS 3 Zrotation Yrotation Xrotation
								JOINT RightFingerBase
								{
									OFFSET 0 0 0
									CHANNELS 3 Zrotation Yrotation Xrotation
									JOINT RightHandIndex1
									{
										OFFSET -0.50776 -0.00000 0.00000
										CHANNELS 3 Zrotation Yrotation Xrotation
										End Site
										{
											OFFSET -0.40937 -0.00000 0.00000
										}
									}
								}
								JOINT RThumb
								{
									OFFSET 0 0 0
									CHANNELS 3 Zrotation Yrotation Xrotation
									End Site
									{
										OFFSET -0.41562 -0.00000 0.41562
									}
								}
							}
						}
					}
				}
			}
		}
	}
}
MOTION
Frames: 14
Frame Time: .0083333
9.7584 16.3180 1.9249 176.1240 0.3842 -157.6250 0.0000 0.0000 0.0000 -5.2921 -25.6942 -69.3534 9.9187 17.3639 59.2164 0.1911 -1.5504 -7.8598 4.1063 -12.3005 -36.8036 0.0000 0.0000 0.0000 18.1052 14.0392 -13.4387 -0.4701 -4.3974 12.1974 -1.3180 -0.0465 -21.7352 -2.1415 9.1548 -26.2807 -8.1833 -0.5066 -21.7508 -1.8085 1.5644 1.7388 3.1074 0.0884 14.1419 -3.0185 -0.4008 -0.6698 5.1387 -2.9399 20.0753 1.9161 -1.8961 6.2877 0.0000 -0.0000 0.0000 -84.5929 2.3494 15.0894 10.5738 -17.6320 -1.6445 -0.0000 -0.0000 9.0937 18.7702 -12.9981 -4.3711 -7.1250 0.0000 -0.0000 -5.8915 16.3256 4.0194 0.0000 -0.0000 0.0000 89.4900 2.0135 22.4046 -22.2344 33.2409 -6.7139 0.0000 -0.0000 -6.4616 -12.3882 -51.4638 9.7489 7.1250 -0.0000 -0.0000 60.9209 -75.3496 -47.0099
9.7468 16.3145 1.8366 176.2300 0.4550 -157.2960 0.0000 0.0000 0.0000 -5.2635 -25.6664 -69.0636 9.8168 17.3055 58.8742 0.1742 -1.8343 -7.4570 3.4295 -11.3598 -33.5031 0.0000 0.0000 0.0000 18.1480 13.8401 -13.5847 -0.4742 -4.4163 12.2509 -1.3188 0.2113 -21.6552 -2.1608 9.1932 -26.4015 -8.1558 -0.4134 -21.9176 -1.8639 1.6797 1.5655 3.0684 0.1483 14.0209 -3.2878 -0.5218 -1.2368 5.3417 -3.2302 20.8596 2.0031 -2.0512 6.6562 -0.0000 -0.0000 0.0000 -84.4710 2.4628 15.0434 10.5820 -17.6447 -1.6470 -0.0000 -0.0000 9.1151 18.9485 -13.0854 -4.4446 -7.1250 0.0000 -0.0000 -5.7705 16.2185 3.9494 -0.0000 -0.0000 0.0000 89.5680 1.6715 22.3888 -22.3133 33.3293 -6.7572 0.0000 -0.0000 -6.5619 -13.8258 -49.9417 10.6674 7.1250 -0.0000 -0.0000 54.6509 -75.2368 -41.4702
9.7323 16.3129 1.7481 176.1080 0.5951 -157.0910 0.0000 0.0000 0.0000 -5.6999 -25.6529 -68.4561 9.6746 17.2228 58.3953 0.1747 -2.1866 -7.4391 1.7833 -8.3993 -23.9337 0.0000 0.0000 0.0000 17.9928 13.4802 -13.4803 -0.4559 -4.3315 12.0113 -1.2880 0.0798 -21.4425 -2.4805 9.8024 -28.3392 -8.3492 -0.3997 -22.1023 -1.9860 1.7691 1.5317 3.0689 0.1721 14.0775 -3.4244 -0.5649 -1.8079 5.4933 -3.3665 21.4268 2.0608 -2.1148 6.9501 -0.0000 0.0000 0.0000 -84.3279 2.7567 15.1722 10.8357 -18.0360 -1.7247 -0.0000 -0.0000 8.9063 18.5850 -12.2737 -4.0885 -7.1250 0.0000 -0.0000 -6.0056 17.0974 3.9967 -0.0000 0.0000 0.0000 89.6046 1.4872 22.5534 -22.4066 33.4335 -6.8085 0.0000 -0.0000 -6.4146 -15.4640 -47.9090 11.6014 7.1250 -0.0000 -0.0000 46.7396 -74.7680 -34.4753
9.7190 16.3109 1.6622 176.0650 0.7521 -156.9410 0.0000 0.0000 0.0000 -6.1605 -25.5391 -67.7326 9.5095 17.1246 57.8359 0.2518 -2.4872 -8.9440 1.5693 -7.9046 -22.4248 0.0000 0.0000 0.0000 17.9332 13.4176 -13.2075 -0.4380 -4.2466 11.7716 -1.2521 -0.3486 -21.2882 -2.7618 10.2991 -29.9507 -8.4967 -0.3600 -22.1915 -2.0994 1.8700 1.4857 3.0561 0.2080 14.0633 -3.1228 -0.5475 -1.3372 5.3365 -3.2071 20.6003 1.9751 -2.0097 6.5876 -0.0000 -0.0000 0.0000 -84.2437 2.9165 14.9985 10.9152 -18.1581 -1.7494 -0.0000 -0.0000 8.8081 18.6688 -12.0822 -4.0453 -7.1250 0.0000 -0.0000 -5.9440 17.2902 3.9301 -0.0000 -0.0000 0.0000 89.7713 1.3533 22.4429 -22.4176 33.4457 -6.8146 0.0000 -0.0000 -6.0001 -16.4271 -47.1492 12.1967 7.1250 -0.0000 -0.0000 43.5659 -74.6672 -31.8490
9.7067 16.3105 1.5765 176.1240 0.8722 -156.7180 0.0000 0.0000 0.0000 -6.4825 -25.3700 -67.1910 9.4009 17.0589 57.4664 0.3106 -2.5558 -9.9545 1.0544 -6.5291 -18.3275 0.0000 0.0000 0.0000 17.9605 13.5912 -12.9801 -0.4275 -4.1961 11.6290 -1.2469 -0.6025 -21.3368 -2.8736 10.4876 -30.5705 -8.4203 -0.5867 -22.2903 -2.1650 2.0609 1.3500 3.0563 0.5197 13.9740 -3.0714 -0.5743 -1.3189 5.2980 -3.2735 20.7465 1.9495 -2.0480 6.6334 0.0000 -0.0000 0.0000 -84.2605 2.8615 14.4926 10.7460 -17.8979 -1.6971 -0.0000 -0.0000 8.9347 18.9836 -12.7590 -4.3447 -7.1250 0.0000 -0.0000 -5.7386 16.5565 3.8851 0.0000 -0.0000 0.0000 89.9071 1.1358 22.1838 -22.3839 33.4082 -6.7960 0.0000 -0.0000 -5.9495 -15.8231 -48.7405 12.0268 7.1250 -0.0000 -0.0000 49.0582 -75.3845 -36.9274
9.6940 16.3139 1.4887 176.1580 0.9007 -156.5050 0.0000 0.0000 0.0000 -6.8201 -25.2562 -66.8118 9.4002 17.0584 57.4640 0.3598 -2.5277 -10.7396 1.7254 -8.2691 -23.5343 0.0000 0.0000 0.0000 17.9719 13.6759 -12.7961 -0.4261 -4.1895 11.6104 -1.2576 -0.6226 -21.4351 -2.8758 10.4912 -30.5823 -8.5144 -0.5973 -22.4839 -2.1786 2.1013 1.3030 3.1122 0.5336 14.0246 -3.1670 -0.6386 -1.6781 5.2770 -3.4400 21.3477 1.9432 -2.1470 6.8993 -0.0000 0.0000 0.0000 -84.2907 2.8475 14.2420 10.7336 -17.8788 -1.6932 -0.0000 -0.0000 8.9101 18.9105 -13.1602 -4.4599 -7.1250 0.0000 -0.0000 -5.7984 16.1438 3.9782 -0.0000 0.0000 0.0000 89.8737 1.0216 22.1605 -22.2533 33.2621 -6.7242 0.0000 -0.0000 -6.0649 -14.7300 -49.0774 11.2355 7.1250 -0.0000 -0.0000 51.0677 -75.1458 -38.3704
9.6800 16.3195 1.4063 176.1710 0.8083 -156.2990 0.0000 0.0000 0.0000 -7.0452 -25.2989 -66.6761 9.4822 17.1082 57.7434 0.4085 -2.6107 -11.4558 2.3141 -9.4917 -27.3459 0.0000 0.0000 0.0000 17.9790 13.5292 -12.6662 -0.4173 -4.1464 11.4890 -1.2359 -0.7613 -21.3022 -3.1236 10.8924 -31.9179 -8.5871 -0.6100 -22.5550 -2.2538 2.1313 1.2490 3.0800 0.5529 14.0004 -3.1063 -0.6528 -1.6320 5.2910 -3.4315 21.1716 1.9392 -2.1299 6.8333 -0.0000 -0.0000 0.0000 -84.1633 2.8554 14.4352 10.8063 -17.9908 -1.7156 -0.0000 -0.0000 8.7264 18.9287 -12.9847 -4.4062 -7.1250 0.0000 -0.0000 -5.7817 16.3255 3.9437 -0.0000 -0.0000 0.0000 89.9772 0.8875 22.0295 -22.1164 33.1083 -6.6493 0.0000 -0.0000 -5.8712 -14.2747 -48.1824 10.7368 7.1250 -0.0000 -0.0000 48.6265 -74.4761 -35.7375
9.6628 16.3291 1.3264 176.2250 0.6362 -156.0490 0.0000 0.0000 0.0000 -7.0025 -25.5355 -66.7833 9.5937 17.1750 58.1216 0.3791 -3.4227 -10.9599 1.4880 -7.7065 -21.8260 0.0000 0.0000 0.0000 17.9991 13.3180 -12.6024 -0.4053 -4.0870 11.3217 -1.1924 -0.8659 -20.9684 -3.3428 11.2303 -33.0607 -8.7067 -0.2465 -22.4584 -2.3501 2.0634 1.1065 2.9537 0.2940 13.7461 -2.8927 -0.7121 -1.3825 5.3465 -3.5149 20.8973 1.9185 -2.1505 6.7031 0.0000 0.0000 0.0000 -83.9255 3.0635 14.9283 10.9383 -18.1937 -1.7566 -0.0000 -0.0000 8.3410 18.9847 -12.4938 -4.2564 -7.1250 0.0000 -0.0000 -5.7320 16.8336 3.8459 0.0000 0.0000 0.0000 90.1871 0.5482 21.8049 -22.0545 33.0386 -6.6155 0.0000 -0.0000 -5.6350 -14.4181 -48.1628 10.8434 7.1250 -0.0000 -0.0000 48.4421 -74.5191 -35.6275
9.6446 16.3401 1.2479 176.3790 0.4754 -155.7150 0.0000 0.0000 0.0000 -6.6402 -25.8512 -67.1519 9.7173 17.2478 58.5393 0.3888 -3.2763 -11.1092 1.5465 -7.8497 -22.2584 0.0000 0.0000 0.0000 18.0855 13.3511 -12.6410 -0.4068 -4.0944 11.3424 -1.1480 -0.8598 -20.5776 -3.1665 10.9598 -32.1446 -8.6321 -0.2386 -22.4135 -2.3615 2.0244 0.9329 2.8851 0.2914 13.5206 -2.8228 -0.6930 -1.1704 5.4026 -3.4637 20.6025 1.9309 -2.1137 6.5687 0.0000 0.0000 0.0000 -83.8160 3.3363 15.1520 11.0992 -18.4401 -1.8072 -0.0000 -0.0000 8.0066 18.8875 -12.4510 -4.2188 -7.1250 0.0000 -0.0000 -5.7986 16.8868 3.8843 0.0000 0.0000 0.0000 90.2981 0.2992 21.5356 -21.9471 32.9172 -6.5571 0.0000 -0.0000 -5.4897 -14.6812 -48.7196 11.1383 7.1250 -0.0000 -0.0000 49.9508 -74.9332 -37.2457
9.6268 16.3522 1.1688 176.4770 0.4034 -155.4690 0.0000 0.0000 0.0000 -6.3352 -26.1353 -67.4413 9.8057 17.2992 58.8371 0.3949 -3.1387 -11.2066 1.3034 -7.2325 -20.4060 0.0000 0.0000 0.0000 18.1035 13.3682 -12.5994 -0.4029 -4.0753 11.2886 -1.0915 -0.8887 -20.0843 -3.0526 10.7797 -31.5405 -8.6478 -0.2464 -22.4025 -2.3593 2.0040 0.8507 2.8897 0.2847 13.4182 -2.8104 -0.6776 -1.0844 5.4155 -3.3767 20.2557 1.9405 -2.0574 6.4387 0.0000 -0.0000 0.0000 -83.8507 3.2807 14.8503 11.0574 -18.3761 -1.7940 -0.0000 -0.0000 8.1169 18.9658 -13.0971 -4.4529 -7.1250 0.0000 -0.0000 -5.7587 16.2047 3.9431 0.0000 -0.0000 0.0000 90.3401 0.1586 21.2717 -21.8734 32.8337 -6.5171 0.0000 -0.0000 -5.4106 -14.9694 -49.1604 11.4356 7.1250 -0.0000 -0.0000 51.1485 -75.2823 -38.5668
9.6078 16.3687 1.0854 176.4960 0.2994 -155.3820 0.0000 0.0000 0.0000 -6.3397 -26.3596 -67.3945 9.8445 17.3215 58.9673 0.3904 -2.9813 -11.1538 1.2713 -7.1463 -20.1495 0.0000 0.0000 0.0000 18.0716 13.1480 -12.3246 -0.3842 -3.9807 11.0224 -1.0270 -0.9524 -19.5162 -3.0487 10.7735 -31.5196 -8.7098 -0.2615 -22.3370 -2.4031 1.9905 0.8185 2.8690 0.2779 13.3440 -2.7084 -0.7553 -0.7650 5.4015 -3.4178 19.7517 1.9209 -2.0643 6.2232 -0.0000 0.0000 0.0000 -83.8524 3.1499 14.6194 10.9568 -18.2220 -1.7624 -0.0000 -0.0000 8.2682 19.2055 -13.2751 -4.5733 -7.1250 0.0000 -0.0000 -5.5982 15.9967 3.8573 -0.0000 0.0000 0.0000 90.3957 -0.1912 21.1779 -21.9355 32.9041 -6.5508 0.0000 -0.0000 -5.4296 -15.0654 -48.9645 11.4772 7.1250 -0.0000 -0.0000 50.4244 -75.2145 -37.9007
9.5898 16.3896 1.0060 176.5370 0.0303 -155.2200 0.0000 0.0000 0.0000 -6.4545 -26.5617 -67.2624 9.8463 17.3225 58.9735 0.3856 -2.9123 -11.0889 1.9756 -8.8151 -25.2186 0.0000 0.0000 0.0000 18.1198 12.9967 -12.1168 -0.3710 -3.9125 10.8305 -0.9657 -1.2667 -19.0650 -3.2126 11.0315 -32.3862 -8.7344 -0.3168 -22.3077 -2.4318 1.9209 0.8114 2.8267 0.2456 13.3272 -2.7681 -0.9025 -0.7765 5.6138 -3.6609 19.7413 1.9845 -2.1721 6.2368 0.0000 -0.0000 0.0000 -83.7839 3.0219 14.7309 10.9963 -18.2826 -1.7748 -0.0000 -0.0000 8.0655 19.1722 -12.9028 -4.4395 -7.1250 0.0000 -0.0000 -5.6115 16.3894 3.8186 0.0000 -0.0000 0.0000 90.4955 -0.4040 21.0031 -21.8938 32.8568 -6.5281 0.0000 -0.0000 -5.4112 -15.1755 -48.3373 11.4548 7.1250 -0.0000 -0.0000 48.3203 -74.9076 -35.8848
9.5737 16.4138 0.9278 176.4860 -0.1326 -155.0480 0.0000 0.0000 0.0000 -6.7621 -26.6830 -66.9227 9.7672 17.2769 58.7076 0.3758 -3.0041 -10.9355 2.3956 -9.6455 -27.8363 0.0000 0.0000 0.0000 18.0491 13.0195 -11.9119 -0.3601 -3.8552 10.6697 -0.8975 -1.7014 -18.5877 -3.3865 11.2959 -33.2846 -8.9300 -0.3400 -22.2305 -2.4783 1.9331 0.8049 2.8866 0.2400 13.2703 -2.9859 -1.0169 -0.9967 5.8824 -3.8229 19.7037 2.0958 -2.2340 6.2779 -0.0000 0.0000 0.0000 -83.7027 2.8463 14.8757 11.0316 -18.3366 -1.7858 -0.0000 -0.0000 7.9329 18.9656 -12.8595 -4.3737 -7.1250 0.0000 -0.0000 -5.7533 16.4530 3.9082 -0.0000 0.0000 0.0000 90.5851 -0.5202 20.6177 -21.7608 32.7057 -6.4561 0.0000 -0.0000 -5.3816 -15.5607 -48.1067 11.7108 7.1250 -0.0000 -0.0000 47.2615 -74.9215 -35.0355
9.5570 16.4426 0.8459 176.3710 -0.0959 -154.9650 0.0000 0.0000 0.0000 -7.2402 -26.7240 -66.3163 9.6550 17.2112 58.3289 0.4119 -2.9438 -11.4683 2.9312 -10.5829 -30.8857 0.0000 0.0000 0.0000 17.8440 13.1196 -11.5725 -0.3487 -3.7940 10.4979 -0.8207 -1.9738 -17.9354 -3.3935 11.3063 -33.3199 -9.2477 -0.3012 -22.1181 -2.5535 2.0583 0.8161 3.0182 0.2783 13.1984 -2.9520 -1.0902 -1.3343 5.8752 -3.9377 19.9475 2.0767 -2.2786 6.4196 0.0000 0.0000 0.0000 -83.6242 2.6781 15.1001 11.0397 -18.3491 -1.7884 -0.0000 -0.0000 7.8400 18.9931 -12.9288 -4.4036 -7.1250 0.0000 -0.0000 -5.7359 16.3781 3.9056 0.0000 0.0000 0.0000 90.6012 -0.6518 20.2206 -21.6631 32.5942 -6.4034 0.0000 -0.0000 -5.4870 -15.7861 -48.3871 11.9348 7.1250 -0.0000 -0.0000 47.9456 -75.1707 -35.8178
